<svg id="Layer_1" height="512" viewBox="0 0 128 128" width="512" xmlns="http://www.w3.org/2000/svg">
    <linearGradient id="linear-gradient" gradientUnits="userSpaceOnUse" x1="99.748" x2="14.628" y1="99.748" y2="14.628">
        <stop offset="0" stop-color="#f55138"/>
        <stop offset="1" stop-color="#24d5dc"/>
    </linearGradient>
    <path d="m28.909 27.207a1.75 1.75 0 1 1 2.475-2.475l.693.693a1.75 1.75 0 1 1 -2.477 2.475zm-11.809-8.402a1.2 1.2 0 0 1 0-1.7 1.231 1.231 0 0 1 1.7 0l6.131 6.131a1.75 1.75 0 0 0 2.475-2.475l-6.126-6.133a4.7 4.7 0 1 0 -6.652 6.652l45.713 45.713a1.75 1.75 0 0 0 2.475-2.475zm59.12 75.009-.414-.814a1.75 1.75 0 0 0 -3.119 1.589l.414.813a1.75 1.75 0 0 0 3.119-1.589zm38.509-10.068a1.75 1.75 0 0 0 -.935-1.286l-26.182-13.325a1.75 1.75 0 1 0 -1.588 3.119l24.034 12.232-4.91 4.914-8.31-5.878a1.75 1.75 0 0 0 -2.021 2.857l7.82 5.531-4.127 4.126-6.885-6.886a1.75 1.75 0 0 0 -2.475 2.475l6.885 6.885-4.126 4.126-5.532-7.82a1.75 1.75 0 1 0 -2.857 2.021l5.878 8.31-4.911 4.911-5.587-10.969a1.75 1.75 0 0 0 -3.119 1.588l6.677 13.117a1.751 1.751 0 0 0 1.285.935 1.8 1.8 0 0 0 .274.021 1.75 1.75 0 0 0 1.237-.513l28.979-28.979a1.748 1.748 0 0 0 .496-1.511zm-42.481 6.124a1.749 1.749 0 0 1 -2.354-.766l-3.207-6.3a11.39 11.39 0 0 1 .22-15.9 11.6 11.6 0 0 1 .9-.8l-34.015-34.015a1.75 1.75 0 1 1 2.475-2.475l34.688 34.686a11.382 11.382 0 0 1 12.09 2.6 1.749 1.749 0 0 1 0 2.475l-5.594 5.594 3.5 3.5a1.75 1.75 0 1 1 -2.475 2.475l-3.5-3.5-4.7 4.7 2.733 5.371a1.75 1.75 0 0 1 -.761 2.355zm-5.184-14.894a7.853 7.853 0 0 0 1.217 4.22l5.455-5.455 5.464-5.46a7.914 7.914 0 0 0 -12.132 6.695z"
          fill="url(#linear-gradient)"/>
</svg>