<svg width="160" height="35" viewBox="0 0 160 35" fill="none" xmlns="http://www.w3.org/2000/svg">
    <path d="M19.504 27.04V34H0.304V3.904H7.744V27.04H19.504ZM50.7123 18.928C50.7123 24.4 49.5923 28.368 47.3523 30.832C45.1443 33.264 41.5443 34.48 36.5523 34.48C31.3363 34.48 27.6723 33.328 25.5603 31.024C23.4483 28.72 22.3923 24.688 22.3923 18.928C22.3923 13.456 23.4963 9.504 25.7043 7.072C27.9443 4.64 31.5603 3.424 36.5523 3.424C41.7683 3.424 45.4323 4.576 47.5443 6.88C49.6563 9.184 50.7123 13.2 50.7123 18.928ZM30.8403 25.36C31.2563 26.16 31.8643 26.72 32.6643 27.04C33.4963 27.36 34.7923 27.52 36.5523 27.52C38.3123 27.52 39.5923 27.36 40.3923 27.04C41.2243 26.72 41.8483 26.16 42.2643 25.36C42.5843 24.72 42.8083 23.888 42.9363 22.864C43.0963 21.84 43.1763 20.528 43.1763 18.928C43.1763 17.296 43.0963 15.968 42.9363 14.944C42.8083 13.888 42.5843 13.04 42.2643 12.4C41.8803 11.568 41.2723 10.992 40.4403 10.672C39.6403 10.32 38.3443 10.144 36.5523 10.144C34.7603 10.144 33.4483 10.32 32.6163 10.672C31.8163 10.992 31.2243 11.568 30.8403 12.4C30.5203 13.04 30.2803 13.888 30.1203 14.944C29.9923 15.968 29.9283 17.296 29.9283 18.928C29.9283 20.528 29.9923 21.84 30.1203 22.864C30.2803 23.888 30.5203 24.72 30.8403 25.36ZM77.2964 3.904V10.624H69.0884V34H61.6484V10.624H53.4404V3.904H77.2964Z" fill="#000000"/>
    <path d="M150.728 22.768L144.632 21.328C142.2 20.752 140.536 19.872 139.64 18.688C138.776 17.504 138.344 15.808 138.344 13.6C138.344 10.112 139.256 7.552 141.08 5.92C142.936 4.256 145.8 3.424 149.672 3.424C151.272 3.424 152.696 3.488 153.944 3.616C155.192 3.744 156.344 3.968 157.4 4.288V10.96C154.968 10.544 153.288 10.304 152.36 10.24C151.464 10.176 150.52 10.144 149.528 10.144C148.184 10.144 147.208 10.368 146.6 10.816C145.992 11.264 145.688 12.016 145.688 13.072C145.688 13.584 145.784 13.984 145.976 14.272C146.168 14.528 146.536 14.72 147.08 14.848L152.84 16.192C154.504 16.576 155.704 16.96 156.44 17.344C157.176 17.696 157.768 18.16 158.216 18.736C158.728 19.344 159.096 20.128 159.32 21.088C159.576 22.048 159.704 23.216 159.704 24.592C159.704 28.08 158.776 30.608 156.92 32.176C155.064 33.712 152.184 34.48 148.28 34.48C146.296 34.48 144.408 34.352 142.616 34.096C140.824 33.872 139.432 33.584 138.44 33.232V26.176C139.72 26.592 141.24 26.928 143 27.184C144.76 27.408 146.52 27.52 148.28 27.52C149.688 27.52 150.664 27.344 151.208 26.992C151.752 26.64 152.024 25.936 152.024 24.88C152.024 24.208 151.928 23.728 151.736 23.44C151.576 23.12 151.24 22.896 150.728 22.768Z" fill="#000000"/>
    <path fill-rule="evenodd" clip-rule="evenodd" d="M123.063 25.8378C123.387 25.4408 123.695 25.0308 123.987 24.608C129.527 16.5653 127.202 6.53334 119.022 0.730737C118.783 0.559737 118.441 0.793437 118.589 1.02144C122.032 6.56184 122.134 13.4018 118.127 19.2158C117.58 20.0081 116.976 20.7548 116.315 21.4616C115.722 22.0968 115.087 22.6914 114.416 23.2454C114.725 22.799 114.993 22.3402 115.22 21.8722C117.198 17.8195 116.121 13.117 112.45 9.94781C112.319 9.83381 112.097 9.95352 112.165 10.1017C113.795 13.4989 113.396 17.4946 110.672 20.7037C108.736 22.975 105.971 24.4618 102.96 25.0675L102.948 25.0639C100.332 24.2716 97.9949 22.801 96.3533 20.7091C93.6857 17.3176 93.5318 13.1566 95.504 9.74796C95.5439 9.67386 95.4356 9.60546 95.3672 9.65676C93.4577 11.0818 92.141 12.9058 91.4741 14.878C91.1314 15.8793 90.9559 16.9165 90.9555 17.9579C90.9548 19.1437 91.1819 20.3368 91.6487 21.4882C90.9906 20.7839 90.389 20.04 89.8439 19.2508C88.7039 17.5978 87.9002 15.865 87.41 14.1037C86.1617 9.65772 86.9141 5.02362 89.3822 1.05642C89.5304 0.828416 89.1884 0.594716 88.949 0.765716C80.7695 6.57402 78.4439 16.606 83.9843 24.6487C84.902 25.9768 85.9793 27.1795 87.1877 28.2454C90.9212 31.5343 95.8973 33.535 101.13 34.0252C102.173 34.1278 103.228 34.1677 104.288 34.1392C104.32 34.1392 104.353 34.1379 104.385 34.136L104.493 34.1385C106.585 34.2012 108.688 34.0815 110.786 33.7965C121.239 32.3886 131.186 26.9394 135.991 19.9341C136.162 19.6833 135.752 19.5408 135.461 19.746C131.934 22.3499 127.655 24.4583 123.063 25.8378Z" fill="#000000"/>
</svg>
