<svg width="57" height="35" viewBox="0 0 57 35" fill="none" xmlns="http://www.w3.org/2000/svg">
    <path fill-rule="evenodd" clip-rule="evenodd" d="M43.063 25.8378C43.3865 25.4408 43.6948 25.0308 43.9869 24.608C49.5273 16.5653 47.2017 6.53334 39.0222 0.730737C38.7828 0.559737 38.4408 0.793437 38.589 1.02144C42.0318 6.56184 42.1344 13.4018 38.1273 19.2158C37.5801 20.0081 36.9759 20.7548 36.3147 21.4616C35.7219 22.0968 35.0872 22.6914 34.416 23.2454C34.7253 22.799 34.9932 22.3402 35.2203 21.8722C37.1982 17.8195 36.1209 13.117 32.4501 9.94781C32.319 9.83381 32.0967 9.95352 32.1651 10.1017C33.7953 13.4989 33.3963 17.4946 30.6717 20.7037C28.7363 22.975 25.9708 24.4618 22.9601 25.0675L22.9482 25.0639C20.3319 24.2716 17.9949 22.801 16.3533 20.7091C13.6857 17.3176 13.5318 13.1566 15.504 9.74796C15.5439 9.67386 15.4356 9.60546 15.3672 9.65676C13.4577 11.0818 12.141 12.9058 11.4741 14.878C11.1314 15.8793 10.9559 16.9165 10.9555 17.9579C10.9548 19.1437 11.1819 20.3368 11.6487 21.4882C10.9906 20.7839 10.389 20.04 9.84394 19.2508C8.70393 17.5978 7.90023 15.865 7.41003 14.1037C6.16173 9.65772 6.91413 5.02362 9.38223 1.05642C9.53043 0.828416 9.18843 0.594716 8.94903 0.765716C0.769534 6.57402 -1.55607 16.606 3.98433 24.6487C4.90203 25.9768 5.97933 27.1795 7.18773 28.2454C10.9212 31.5343 15.8973 33.535 21.1299 34.0252C22.173 34.1278 23.2275 34.1677 24.2877 34.1392C24.3201 34.1392 24.3525 34.1379 24.3849 34.136L24.4929 34.1385C26.5848 34.2012 28.6881 34.0815 30.7857 33.7965C41.2395 32.3886 51.186 26.9394 55.9911 19.9341C56.1621 19.6833 55.7517 19.5408 55.461 19.746C51.934 22.3499 47.6552 24.4583 43.063 25.8378Z" fill="#000000"/>
</svg>
